<svg width="81" height="81" viewBox="0 0 81 81" fill="none" xmlns="http://www.w3.org/2000/svg">
<rect x="0.329956" y="0.290039" width="80" height="80" rx="40" fill="#1877F2"/>
<g clip-path="url(#clip0_4_226)">
<path d="M40.33 51.4067H29.48C28.8577 51.4067 28.3522 51.1928 27.9633 50.765C27.5744 50.3373 27.38 49.8512 27.38 49.3067V34.7234L38.3466 25.04C38.8911 24.5734 39.5522 24.34 40.33 24.34C41.1077 24.34 41.7688 24.5734 42.3133 25.04L56.1966 37.29C56.3522 37.4456 56.5466 37.5039 56.78 37.465C57.0133 37.4262 57.2077 37.3289 57.3633 37.1734C57.5188 37.0178 57.5772 36.8234 57.5383 36.59C57.4994 36.3567 57.4022 36.1623 57.2466 36.0067L54.9133 34.0234V25.74C54.9133 24.5734 54.4855 23.5623 53.63 22.7067C52.7744 21.8512 51.7633 21.4428 50.5966 21.4817C49.43 21.5206 48.4383 21.9484 47.6216 22.765C46.805 23.5817 46.3577 24.5734 46.28 25.74V26.44L43.3633 23.8734C42.5077 23.0956 41.4966 22.7067 40.33 22.7067C39.1633 22.7067 38.1522 23.0956 37.2966 23.8734L23.4133 36.0067C23.18 36.1623 23.0633 36.3567 23.0633 36.59C23.0633 36.8234 23.1411 37.0178 23.2966 37.1734C23.4522 37.3289 23.6466 37.4262 23.88 37.465C24.1133 37.5039 24.3077 37.4456 24.4633 37.29L25.7466 36.24V49.3067C25.7466 50.3178 26.1161 51.1928 26.855 51.9317C27.5938 52.6706 28.4688 53.04 29.48 53.04H40.33C40.5633 53.04 40.7577 52.9623 40.9133 52.8067C41.0688 52.6512 41.1466 52.4567 41.1466 52.2234C41.1466 51.99 41.0688 51.7956 40.9133 51.64C40.7577 51.4845 40.5633 51.4067 40.33 51.4067ZM47.9133 25.74C47.9911 24.9623 48.2827 24.3206 48.7883 23.815C49.2938 23.3095 49.9161 23.0762 50.655 23.115C51.3938 23.1539 52.0161 23.4262 52.5216 23.9317C53.0272 24.4373 53.28 25.04 53.28 25.74V32.5067L47.9133 27.84V25.74ZM40.33 29.7067C39.2411 29.7067 38.3077 30.0956 37.53 30.8734C36.7522 31.6512 36.3633 32.5845 36.3633 33.6734C36.3633 34.7623 36.7522 35.6956 37.53 36.4734C38.3077 37.2512 39.2411 37.64 40.33 37.64C41.4188 37.64 42.3522 37.2512 43.13 36.4734C43.9077 35.6956 44.2966 34.7623 44.2966 33.6734C44.2966 32.5845 43.9077 31.6512 43.13 30.8734C42.3522 30.0956 41.4188 29.7067 40.33 29.7067ZM42.6633 33.6734C42.6633 34.3734 42.43 34.9373 41.9633 35.365C41.4966 35.7928 40.9522 36.0067 40.33 36.0067C39.7077 36.0067 39.1633 35.7928 38.6966 35.365C38.23 34.9373 37.9966 34.3928 37.9966 33.7317C37.9966 33.0706 38.23 32.5067 38.6966 32.04C39.1633 31.5734 39.7077 31.34 40.33 31.34C40.9522 31.34 41.4966 31.5734 41.9633 32.04C42.43 32.5067 42.6633 33.0512 42.6633 33.6734ZM57.3633 51.7567L54.5633 48.84C55.2633 47.8289 55.6133 46.7012 55.6133 45.4567C55.6133 43.9012 55.0494 42.5789 53.9216 41.49C52.7938 40.4012 51.4522 39.8567 49.8966 39.8567C48.3411 39.8567 46.9994 40.4012 45.8716 41.49C44.7438 42.5789 44.18 43.9206 44.18 45.515C44.18 47.1095 44.7438 48.4512 45.8716 49.54C46.9994 50.6289 48.3411 51.1734 49.8966 51.1734C51.2188 51.1734 52.3855 50.7845 53.3966 50.0067L56.08 52.8067C56.2355 52.9623 56.43 53.0595 56.6633 53.0984C56.8966 53.1373 57.1105 53.0789 57.305 52.9234C57.4994 52.7678 57.5966 52.5734 57.5966 52.34C57.5966 52.1067 57.5188 51.9123 57.3633 51.7567ZM49.8966 49.54C48.8077 49.54 47.855 49.1512 47.0383 48.3734C46.2216 47.5956 45.8133 46.6428 45.8133 45.515C45.8133 44.3873 46.2216 43.4345 47.0383 42.6567C47.855 41.8789 48.8272 41.49 49.955 41.49C51.0827 41.49 52.0355 41.8789 52.8133 42.6567C53.5911 43.4345 53.98 44.3873 53.98 45.515C53.98 46.6428 53.5911 47.5956 52.8133 48.3734C52.0355 49.1512 51.0633 49.54 49.8966 49.54Z" fill="white"/>
</g>
<defs>
<clipPath id="clip0_4_226">
<rect width="35" height="35" fill="white" transform="matrix(1 0 0 -1 22.83 54.79)"/>
</clipPath>
</defs>
</svg>
