<svg width="81" height="81" viewBox="0 0 81 81" fill="none" xmlns="http://www.w3.org/2000/svg">
<rect x="0.97998" y="0.290039" width="80" height="80" rx="40" fill="#1877F2"/>
<g clip-path="url(#clip0_4_231)">
<path d="M36.78 41.7234C36.78 41.9567 36.8578 42.1317 37.0133 42.2484C37.1689 42.3651 37.3244 42.4234 37.48 42.4234C37.6355 42.4234 37.7911 42.3651 37.9466 42.2484C38.1022 42.1317 38.18 41.9762 38.18 41.7817C38.18 41.5873 38.1022 41.4317 37.9466 41.3151C37.7911 41.1984 37.6355 41.1401 37.48 41.1401C37.3244 41.1401 37.1689 41.1984 37.0133 41.3151C36.8578 41.4317 36.78 41.5678 36.78 41.7234ZM40.28 41.7234C40.28 41.9567 40.3578 42.1317 40.5133 42.2484C40.6689 42.3651 40.8244 42.4234 40.98 42.4234C41.1355 42.4234 41.2911 42.3651 41.4466 42.2484C41.6022 42.1317 41.68 41.9762 41.68 41.7817C41.68 41.5873 41.6022 41.4317 41.4466 41.3151C41.2911 41.1984 41.1355 41.1401 40.98 41.1401C40.8244 41.1401 40.6689 41.1984 40.5133 41.3151C40.3578 41.4317 40.28 41.5678 40.28 41.7234ZM43.78 41.7234C43.78 41.9567 43.8578 42.1317 44.0133 42.2484C44.1689 42.3651 44.3244 42.4234 44.48 42.4234C44.6355 42.4234 44.7911 42.3651 44.9466 42.2484C45.1022 42.1317 45.18 41.9762 45.18 41.7817C45.18 41.5873 45.1022 41.4317 44.9466 41.3151C44.7911 41.1984 44.6355 41.1401 44.48 41.1401C44.3244 41.1401 44.1689 41.1984 44.0133 41.3151C43.8578 41.4317 43.78 41.5678 43.78 41.7234ZM30.0133 42.4234C29.08 42.4234 28.2244 42.1706 27.4466 41.6651C26.6689 41.1595 26.105 40.4789 25.755 39.6234C25.405 38.7678 25.3272 37.8734 25.5216 36.9401C25.7161 36.0067 26.1439 35.2095 26.805 34.5484C27.4661 33.8873 28.2439 33.4789 29.1383 33.3234C30.0328 33.1678 30.9078 33.2651 31.7633 33.6151C32.6189 33.9651 33.3189 34.5289 33.8633 35.3067C34.4078 36.0845 34.68 36.9401 34.68 37.8734C34.68 39.1178 34.2328 40.1873 33.3383 41.0817C32.4439 41.9762 31.3355 42.4234 30.0133 42.4234ZM30.0133 34.6067C29.3911 34.6067 28.8078 34.7817 28.2633 35.1317C27.7189 35.4817 27.3105 35.9678 27.0383 36.5901C26.7661 37.2123 26.7078 37.8539 26.8633 38.5151C27.0189 39.1762 27.33 39.7206 27.7966 40.1484C28.2633 40.5762 28.8078 40.8678 29.43 41.0234C30.0522 41.1789 30.6744 41.1206 31.2966 40.8484C31.9189 40.5762 32.405 40.1678 32.755 39.6234C33.105 39.0789 33.28 38.4956 33.28 37.8734C33.28 36.9401 32.9689 36.1623 32.3466 35.5401C31.7244 34.9178 30.9466 34.6067 30.0133 34.6067ZM35.9633 50.7067H24.18C23.9466 50.7067 23.7716 50.6484 23.655 50.5317C23.5383 50.4151 23.48 50.2401 23.48 50.0067V47.6734C23.48 45.8845 24.1216 44.3484 25.405 43.0651C26.6883 41.7817 28.2439 41.1401 30.0716 41.1401C31.8994 41.1401 33.4355 41.7817 34.68 43.0651C35.9244 44.3484 36.5855 45.8845 36.6633 47.6734V50.0067C36.6633 50.2401 36.5855 50.4151 36.43 50.5317C36.2744 50.6484 36.1189 50.7067 35.9633 50.7067ZM24.88 49.3067H35.2633V47.6734C35.2633 46.2734 34.7578 45.0678 33.7466 44.0567C32.7355 43.0456 31.5105 42.5401 30.0716 42.5401C28.6328 42.5401 27.4078 43.0456 26.3966 44.0567C25.3855 45.0678 24.88 46.2734 24.88 47.6734V49.3067ZM51.9466 42.4234C51.0133 42.4234 50.1578 42.1706 49.38 41.6651C48.6022 41.1595 48.0383 40.4789 47.6883 39.6234C47.3383 38.7678 47.2411 37.8734 47.3966 36.9401C47.5522 36.0067 47.9605 35.2095 48.6216 34.5484C49.2828 33.8873 50.08 33.4789 51.0133 33.3234C51.9466 33.1678 52.8411 33.2651 53.6966 33.6151C54.5522 33.9651 55.2328 34.5289 55.7383 35.3067C56.2439 36.0845 56.4966 36.9401 56.4966 37.8734C56.4966 39.1178 56.0494 40.1873 55.155 41.0817C54.2605 41.9762 53.1911 42.4234 51.9466 42.4234ZM51.9466 34.6067C51.2466 34.6067 50.6244 34.7817 50.08 35.1317C49.5355 35.4817 49.1466 35.9678 48.9133 36.5901C48.68 37.2123 48.6216 37.8539 48.7383 38.5151C48.855 39.1762 49.1466 39.7206 49.6133 40.1484C50.08 40.5762 50.6439 40.8678 51.305 41.0234C51.9661 41.1789 52.5883 41.1206 53.1716 40.8484C53.755 40.5762 54.2216 40.1678 54.5716 39.6234C54.9216 39.0789 55.0966 38.4956 55.0966 37.8734C55.0966 36.9401 54.7855 36.1623 54.1633 35.5401C53.5411 34.9178 52.8022 34.6067 51.9466 34.6067ZM57.78 50.7067H45.9966C45.8411 50.7067 45.6855 50.6484 45.53 50.5317C45.3744 50.4151 45.2966 50.2401 45.2966 50.0067V47.6734C45.3744 45.8845 46.0355 44.3484 47.28 43.0651C48.5244 41.7817 50.0605 41.1401 51.8883 41.1401C53.7161 41.1401 55.2716 41.7817 56.555 43.0651C57.8383 44.3484 58.48 45.8845 58.48 47.6734V50.0067C58.48 50.2401 58.4216 50.4151 58.305 50.5317C58.1883 50.6484 58.0133 50.7067 57.78 50.7067ZM46.6966 49.3067H57.08V47.6734C57.08 46.2734 56.5744 45.0678 55.5633 44.0567C54.5522 43.0456 53.3272 42.5401 51.8883 42.5401C50.4494 42.5401 49.2244 43.0456 48.2133 44.0567C47.2022 45.0678 46.6966 46.2734 46.6966 47.6734V49.3067ZM37.83 37.6401C37.6744 37.6401 37.5189 37.5817 37.3633 37.4651C37.2078 37.3484 37.13 37.2123 37.13 37.0567V34.9567H36.5466C35.9244 34.9567 35.38 34.7428 34.9133 34.3151C34.4466 33.8873 34.2133 33.3623 34.2133 32.7401V26.0901C34.2133 25.4678 34.4466 24.9428 34.9133 24.5151C35.38 24.0873 35.9244 23.8734 36.5466 23.8734H45.2966C45.9189 23.8734 46.4439 24.0873 46.8716 24.5151C47.2994 24.9428 47.5133 25.4678 47.5133 26.0901V32.7401C47.5133 33.3623 47.2994 33.8873 46.8716 34.3151C46.4439 34.7428 45.9189 34.9567 45.2966 34.9567H40.8633L38.2966 37.5234C38.2189 37.6789 38.0633 37.7178 37.83 37.6401ZM36.5466 25.2734C36.3133 25.2734 36.0994 25.3512 35.905 25.5067C35.7105 25.6623 35.6133 25.8567 35.6133 26.0901V32.7401C35.6133 32.9734 35.7105 33.1873 35.905 33.3817C36.0994 33.5762 36.3133 33.6734 36.5466 33.6734H37.83C38.0633 33.6734 38.2383 33.7317 38.355 33.8484C38.4716 33.9651 38.53 34.1012 38.53 34.2567V35.3067L40.0466 33.7901C40.2022 33.7123 40.3578 33.6734 40.5133 33.6734H45.2966C45.53 33.6734 45.7439 33.5762 45.9383 33.3817C46.1328 33.1873 46.23 32.9734 46.23 32.7401V26.0901C46.23 25.8567 46.1328 25.6623 45.9383 25.5067C45.7439 25.3512 45.53 25.2734 45.2966 25.2734H36.5466Z" fill="white"/>
</g>
<defs>
<clipPath id="clip0_4_231">
<rect width="35" height="35" fill="white" transform="matrix(1 0 0 -1 23.48 54.79)"/>
</clipPath>
</defs>
</svg>
