<svg width="81" height="81" viewBox="0 0 81 81" fill="none" xmlns="http://www.w3.org/2000/svg">
<rect x="0.640015" y="0.290039" width="80" height="80" rx="40" fill="#1877F2"/>
<g clip-path="url(#clip0_4_236)">
<path d="M41.5734 41.0234C41.34 41.0234 41.1456 40.9456 40.99 40.79C39.9789 39.8567 39.5122 38.7289 39.59 37.4067C39.59 36.3956 39.8234 35.4623 40.29 34.6067C40.3678 34.3734 40.5039 34.2373 40.6984 34.1984C40.8928 34.1595 41.0872 34.1984 41.2817 34.315C41.4761 34.4317 41.5928 34.5873 41.6317 34.7817C41.6706 34.9762 41.6511 35.1511 41.5734 35.3067C41.2622 35.6956 41.0678 36.24 40.99 36.94C40.8345 38.0289 41.1845 38.9623 42.04 39.74C42.2734 39.9734 42.3317 40.2456 42.215 40.5567C42.0984 40.8678 41.8456 41.0234 41.4567 41.0234H41.5734ZM28.6234 44.1734C27.7678 44.0956 27.0289 43.7456 26.4067 43.1234C25.7067 42.4234 25.3567 41.5484 25.3567 40.4984C25.3567 39.4484 25.7067 38.5734 26.4067 37.8734L33.7567 30.4067C34.0678 30.1734 34.34 29.9789 34.5734 29.8234C34.8067 29.6678 35.0206 29.6289 35.215 29.7067C35.4095 29.7845 35.5456 29.9011 35.6234 30.0567C35.7011 30.2123 35.7206 30.3873 35.6817 30.5817C35.6428 30.7761 35.5261 30.9317 35.3317 31.0484C35.1372 31.165 34.9622 31.3011 34.8067 31.4567L27.4567 38.9234C26.99 39.3123 26.7567 39.8373 26.7567 40.4984C26.7567 41.1595 26.99 41.6845 27.4567 42.0734C27.69 42.3845 28.0011 42.5789 28.39 42.6567L30.6067 40.44C30.7622 40.2845 30.9567 40.2067 31.19 40.2067L32.24 40.44L32.8234 39.8567V37.99C32.8234 37.8345 32.9011 37.6789 33.0567 37.5234C33.2122 37.3678 33.3678 37.29 33.5234 37.29L35.5067 37.1734L38.0734 34.6067L38.3067 34.3734C38.3845 34.2178 38.5206 34.1206 38.715 34.0817C38.9095 34.0428 39.1039 34.0817 39.2984 34.1984C39.4928 34.315 39.6095 34.4706 39.6484 34.665C39.6872 34.8595 39.6289 35.0345 39.4734 35.19L39.1234 35.6567L36.3234 38.4567C36.1678 38.6123 36.0122 38.69 35.8567 38.69H34.34V40.2067C34.34 40.44 34.2622 40.5956 34.1067 40.6734L33.0567 41.84C32.9011 41.9956 32.7067 42.0345 32.4734 41.9567L31.4234 41.84L29.2067 44.0567C29.0511 44.1345 28.8567 44.1734 28.6234 44.1734ZM41.8067 35.7734C40.4067 35.7734 39.1039 35.4623 37.8984 34.84C36.6928 34.2178 35.7011 33.3428 34.9234 32.215C34.1456 31.0873 33.6984 29.8234 33.5817 28.4234C33.465 27.0234 33.6789 25.7012 34.2234 24.4567C34.7678 23.2123 35.5845 22.1817 36.6734 21.365C37.7622 20.5484 39.0067 20.0234 40.4067 19.79C40.64 19.7123 40.8539 19.79 41.0484 20.0234C41.2428 20.2567 41.3011 20.5095 41.2234 20.7817C41.1456 21.0539 40.9511 21.2289 40.64 21.3067C38.9289 21.54 37.5484 22.3567 36.4984 23.7567C35.4484 25.1567 35.04 26.7317 35.2734 28.4817C35.5067 30.2317 36.2845 31.6511 37.6067 32.74C38.9289 33.8289 40.4456 34.3345 42.1567 34.2567C43.8678 34.1789 45.3261 33.4984 46.5317 32.215C47.7372 30.9317 48.34 29.4345 48.34 27.7234C48.34 26.6345 48.1067 25.6234 47.64 24.69C47.1734 23.7567 46.4734 22.9789 45.54 22.3567C45.3845 22.2011 45.3067 22.0261 45.3067 21.8317C45.3067 21.6373 45.365 21.4623 45.4817 21.3067C45.5984 21.1511 45.7539 21.0539 45.9484 21.015C46.1428 20.9762 46.3178 21.0345 46.4734 21.19C47.8734 22.2011 48.865 23.5234 49.4484 25.1567C50.0317 26.79 50.0511 28.4428 49.5067 30.115C48.9622 31.7873 47.99 33.1484 46.59 34.1984C45.19 35.2484 43.5956 35.7734 41.8067 35.7734ZM43.44 21.3067C43.3622 21.3067 43.265 21.2873 43.1484 21.2484C43.0317 21.2095 42.915 21.1123 42.7984 20.9567C42.6817 20.8012 42.6428 20.6067 42.6817 20.3734C42.7206 20.14 42.8761 19.965 43.1484 19.8484C43.4206 19.7317 43.6734 19.7706 43.9067 19.965C44.14 20.1595 44.2178 20.3734 44.14 20.6067C44.0622 20.84 43.965 21.015 43.8484 21.1317C43.7317 21.2484 43.5567 21.3067 43.3234 21.3067H43.44ZM42.8567 29.1234C42.0011 29.1234 41.3011 28.8512 40.7567 28.3067C40.2122 27.7623 39.94 27.0817 39.94 26.265C39.94 25.4484 40.2122 24.7484 40.7567 24.165C41.3011 23.5817 41.9817 23.29 42.7984 23.29C43.615 23.29 44.315 23.5817 44.8984 24.165C45.4817 24.7484 45.7734 25.4484 45.7734 26.265C45.7734 27.0817 45.4817 27.7623 44.8984 28.3067C44.315 28.8512 43.6345 29.1234 42.8567 29.1234ZM42.8567 24.8067C42.4678 24.8067 42.1178 24.9428 41.8067 25.215C41.4956 25.4873 41.34 25.8178 41.34 26.2067C41.34 26.5956 41.4956 26.9456 41.8067 27.2567C42.1178 27.5678 42.4678 27.7234 42.8567 27.7234C43.2456 27.7234 43.5761 27.5678 43.8484 27.2567C44.1206 26.9456 44.2567 26.5956 44.2567 26.2067C44.2567 25.8178 44.1206 25.4873 43.8484 25.215C43.5761 24.9428 43.2456 24.8067 42.8567 24.8067ZM52.3067 54.79C52.1511 54.79 51.9956 54.7123 51.84 54.5567C51.6845 54.4012 51.6067 54.2456 51.6067 54.09V45.8067V45.4567C51.5289 45.2234 51.5678 45.0095 51.7234 44.815C51.8789 44.6206 52.0734 44.5623 52.3067 44.64H53.1234L45.3067 38.2234L37.3734 44.5234H38.19C38.5011 44.5234 38.715 44.6206 38.8317 44.815C38.9484 45.0095 39.0067 45.2234 39.0067 45.4567L38.89 45.8067V54.09C38.89 54.2456 38.8317 54.4012 38.715 54.5567C38.5984 54.7123 38.4234 54.79 38.19 54.79C37.9567 54.79 37.7817 54.7123 37.665 54.5567C37.5484 54.4012 37.49 54.2456 37.49 54.09V46.04H35.2734C34.9622 46.04 34.7484 45.8845 34.6317 45.5734C34.515 45.2623 34.5734 44.99 34.8067 44.7567L44.84 36.7067C44.9178 36.6289 45.0539 36.59 45.2484 36.59C45.4428 36.59 45.6178 36.6289 45.7734 36.7067L55.69 44.7567C55.9234 44.99 55.9817 45.2623 55.865 45.5734C55.7484 45.8845 55.5345 46.04 55.2234 46.04H53.1234V54.09C53.1234 54.2456 53.0456 54.4012 52.89 54.5567C52.7345 54.7123 52.54 54.79 52.3067 54.79ZM45.3067 43.24C45.1511 43.24 44.9956 43.1623 44.84 43.0067C44.6845 42.8512 44.6067 42.6762 44.6067 42.4817C44.6067 42.2873 44.6845 42.1123 44.84 41.9567C47.4845 39.6234 48.69 37.2512 48.4567 34.84C48.2234 32.8956 47.1734 30.99 45.3067 29.1234C44.3734 28.19 43.44 27.4512 42.5067 26.9067C42.1956 26.7512 42.04 26.5178 42.04 26.2067C42.04 25.8956 42.1761 25.6817 42.4484 25.565C42.7206 25.4484 42.9734 25.4678 43.2067 25.6234C44.2956 26.2456 45.3456 27.1012 46.3567 28.19C48.4567 30.29 49.6234 32.4289 49.8567 34.6067C50.1678 37.5623 48.8067 40.4011 45.7734 43.1234C45.6956 43.2011 45.54 43.24 45.3067 43.24ZM47.1734 54.5567C47.0178 54.5567 46.8622 54.4984 46.7067 54.3817C46.5511 54.265 46.4734 54.09 46.4734 53.8567V49.4234C46.4734 49.1123 46.3761 48.8595 46.1817 48.665C45.9872 48.4706 45.7345 48.3734 45.4234 48.3734H44.6067C44.2956 48.3734 44.0428 48.4706 43.8484 48.665C43.6539 48.8595 43.5567 49.1123 43.5567 49.4234V53.8567C43.5567 54.09 43.4789 54.265 43.3234 54.3817C43.1678 54.4984 42.9928 54.5567 42.7984 54.5567C42.6039 54.5567 42.4289 54.4984 42.2734 54.3817C42.1178 54.265 42.04 54.09 42.04 53.8567V49.4234C42.04 48.7234 42.2928 48.1206 42.7984 47.615C43.3039 47.1095 43.9067 46.8567 44.6067 46.8567H45.4234C46.1234 46.8567 46.7261 47.1095 47.2317 47.615C47.7372 48.1206 47.9511 48.7234 47.8734 49.4234V53.8567C47.9511 54.09 47.9122 54.265 47.7567 54.3817C47.6011 54.4984 47.4067 54.5567 47.1734 54.5567Z" fill="white"/>
</g>
<defs>
<clipPath id="clip0_4_236">
<rect width="35" height="35" fill="white" transform="matrix(1 0 0 -1 23.14 54.79)"/>
</clipPath>
</defs>
</svg>
