<svg width="37" height="36" viewBox="0 0 37 36" fill="none" xmlns="http://www.w3.org/2000/svg">
<path d="M9.59616 35.6421C6.78805 35.6421 4.5942 34.6733 3.01464 32.7356C1.43508 30.7099 0.645294 27.7153 0.645294 23.752C0.645294 19.6124 1.56671 15.6491 3.40953 11.8618C5.34011 8.07458 8.06048 4.33139 11.5707 0.632241C11.6584 0.544162 11.79 0.500122 11.9655 0.500122C12.2287 0.500122 12.4043 0.632235 12.492 0.896462C12.6675 1.07261 12.7114 1.2928 12.6237 1.55703C10.5176 4.37543 9.06964 7.10576 8.27986 9.748C7.57783 12.3022 7.22682 15.1646 7.22682 18.3353C7.22682 20.7133 7.53396 22.5629 8.14823 23.884C8.7625 25.2052 9.59616 26.3942 10.6492 27.4511L5.64725 28.3759C5.5595 26.8786 5.95439 25.7336 6.83192 24.941C7.79722 24.1483 9.02577 23.752 10.5176 23.752C12.3604 23.752 13.7644 24.2804 14.7297 25.3373C15.7828 26.3942 16.3094 27.8474 16.3094 29.697C16.3094 31.6347 15.695 33.1319 14.4665 34.1889C13.3257 35.1577 11.7022 35.6421 9.59616 35.6421ZM29.8672 35.6421C27.0591 35.6421 24.8653 34.6733 23.2858 32.7356C21.7939 30.7099 21.048 27.7153 21.048 23.752C21.048 19.5243 21.9694 15.5169 23.8123 11.7297C25.6551 7.94247 28.3754 4.24331 31.9733 0.632241C32.0611 0.544162 32.1927 0.500122 32.3682 0.500122C32.6315 0.500122 32.807 0.632235 32.8948 0.896462C33.0702 1.07261 33.1141 1.2928 33.0264 1.55703C30.9203 4.37543 29.4723 7.10576 28.6826 9.748C27.9806 12.3022 27.6295 15.1646 27.6295 18.3353C27.6295 20.7133 27.8928 22.607 28.4193 24.0162C29.0336 25.3373 29.8672 26.4822 30.9203 27.4511L26.05 28.3759C25.9622 26.8786 26.3571 25.7336 27.2346 24.941C28.1122 24.1483 29.3407 23.752 30.9203 23.752C32.7631 23.752 34.1672 24.2804 35.1325 25.3373C36.1856 26.3942 36.712 27.8474 36.712 29.697C36.712 31.6347 36.0978 33.1319 34.8692 34.1889C33.7284 35.1577 32.0611 35.6421 29.8672 35.6421Z" fill="#1A1A1A"/>
</svg>
