<svg width="19" height="19" viewBox="0 0 19 19" fill="none" xmlns="http://www.w3.org/2000/svg">
<g clip-path="url(#clip0_4_94)">
<path d="M16.0659 6.1293H8.43857C8.05336 6.1293 7.6874 6.24486 7.3407 6.47599C7.26366 5.89817 7.02289 5.42627 6.61841 5.06031C6.21393 4.69436 5.74204 4.51138 5.20273 4.51138C4.77899 4.51138 4.39377 4.60768 4.04708 4.80029V3.93355C4.04708 3.77946 3.99892 3.65426 3.90262 3.55796C3.80631 3.46165 3.68112 3.4135 3.52703 3.4135H1.38906C1.23498 3.4135 1.10978 3.46165 1.01348 3.55796C0.917171 3.65426 0.869019 3.77946 0.869019 3.93355V14.7967C0.869019 14.9508 0.917171 15.076 1.01348 15.1723C1.10978 15.2686 1.23498 15.3168 1.38906 15.3168H3.52703C3.68112 15.3168 3.80631 15.2686 3.90262 15.1723C3.99892 15.076 4.04708 14.9508 4.04708 14.7967V13.121H15.0258V14.7967C15.0258 14.9508 15.074 15.076 15.1703 15.1723C15.2666 15.2686 15.3918 15.3168 15.5459 15.3168H17.6838C17.8379 15.3168 17.9631 15.2686 18.0594 15.1723C18.1557 15.076 18.2039 14.9508 18.2039 14.7967V8.26726C18.2039 7.68943 17.992 7.18865 17.5683 6.76491C17.1445 6.34117 16.6437 6.1293 16.0659 6.1293ZM5.20273 5.49368C5.51091 5.49368 5.77093 5.60925 5.9828 5.84038C6.19467 6.07151 6.30061 6.34117 6.30061 6.64934C6.30061 6.95752 6.19467 7.21754 5.9828 7.42941C5.77093 7.64128 5.51091 7.74722 5.20273 7.74722C4.89456 7.74722 4.62491 7.64128 4.39377 7.42941C4.16264 7.21754 4.04708 6.95752 4.04708 6.64934C4.04708 6.34117 4.16264 6.07151 4.39377 5.84038C4.62491 5.60925 4.89456 5.49368 5.20273 5.49368ZM4.04708 8.44061C4.39377 8.67174 4.76936 8.78731 5.17384 8.78731C5.57832 8.78731 5.95391 8.67174 6.30061 8.44061V9.94297H4.04708V8.44061ZM17.1638 14.2767H16.0081V12.601C16.0081 12.4854 15.96 12.3795 15.8637 12.2832C15.7674 12.1869 15.6614 12.1387 15.5459 12.1387H3.52703C3.41146 12.1387 3.30553 12.1869 3.20922 12.2832C3.11292 12.3795 3.06477 12.4854 3.06477 12.601V14.2767H1.90911V4.45359H3.06477V10.463C3.06477 10.5786 3.11292 10.6941 3.20922 10.8097C3.30553 10.9253 3.41146 10.9831 3.52703 10.9831H17.1638V14.2767ZM17.1638 9.94297H7.3407V8.26726C7.3407 7.95909 7.44664 7.69906 7.65851 7.48719C7.87038 7.27532 8.1304 7.16939 8.43857 7.16939H16.0659C16.3741 7.16939 16.6341 7.27532 16.846 7.48719C17.0579 7.69906 17.1638 7.95909 17.1638 8.26726V9.94297Z" fill="#1A1A1A"/>
</g>
<defs>
<clipPath id="clip0_4_94">
<rect width="17.3349" height="17.3349" fill="white" transform="matrix(1 0 0 -1 0.869019 18.0325)"/>
</clipPath>
</defs>
</svg>
