<svg width="19" height="19" viewBox="0 0 19 19" fill="none" xmlns="http://www.w3.org/2000/svg">
<g clip-path="url(#clip0_4_98)">
<path d="M18.2336 9.48085C18.2336 9.05711 18.0891 8.70078 17.8002 8.41187C17.5113 8.12295 17.155 7.9785 16.7312 7.9785H3.61454V3.29808C3.61454 2.91286 3.74936 2.58543 4.01902 2.31577C4.21163 2.12317 4.43313 2.0076 4.68352 1.96908C4.93391 1.93056 5.19394 1.94982 5.46359 2.02686C5.11689 2.56617 4.98207 3.16326 5.05911 3.81813C5.13615 4.473 5.40581 5.03157 5.86807 5.49383L5.98364 5.66718C6.0992 5.74423 6.2244 5.78275 6.35922 5.78275C6.49405 5.78275 6.59999 5.74423 6.67703 5.66718L9.97065 2.37356C10.0862 2.25799 10.144 2.1328 10.144 1.99797C10.144 1.86314 10.0862 1.73795 9.97065 1.62238L9.85509 1.50681C9.3543 1.00603 8.74758 0.736376 8.03493 0.697855C7.32227 0.659332 6.69629 0.851942 6.15698 1.27568C5.69472 1.00603 5.19394 0.900095 4.65463 0.957878C4.11532 1.01566 3.65306 1.23716 3.26784 1.62238C2.80558 2.08464 2.57445 2.64321 2.57445 3.29808V7.9785H2.4011C1.97736 7.9785 1.62103 8.12295 1.33211 8.41187C1.0432 8.70078 0.898743 9.05711 0.898743 9.48085C0.898743 9.82755 0.995047 10.1261 1.18766 10.3765C1.38027 10.6269 1.6114 10.8099 1.88105 10.9254V12.0233C1.88105 12.9478 2.13144 13.7953 2.63223 14.5657C3.13301 15.3362 3.76863 15.9333 4.53906 16.357L4.0768 17.2815C3.99976 17.4356 3.99013 17.5705 4.04791 17.686C4.10569 17.8016 4.19237 17.8979 4.30793 17.9749C4.4235 18.052 4.54869 18.0616 4.68352 18.0038C4.81835 17.946 4.92428 17.8594 5.00133 17.7438L5.52137 16.7037C5.90659 16.7808 6.31107 16.8193 6.73481 16.8193H12.3975C12.8213 16.8193 13.2258 16.7808 13.611 16.7037L14.131 17.7438C14.2081 17.8594 14.314 17.946 14.4488 18.0038C14.5837 18.0616 14.7088 18.052 14.8244 17.9749C14.94 17.8979 15.0267 17.8016 15.0844 17.686C15.1422 17.5705 15.1326 17.4356 15.0555 17.2815L14.5933 16.357C15.3637 15.9333 15.9993 15.3362 16.5001 14.5657C17.0009 13.7953 17.2513 12.9478 17.2513 12.0233V10.9254C17.5209 10.8099 17.7521 10.6269 17.9447 10.3765C18.1373 10.1261 18.2336 9.82755 18.2336 9.48085ZM8.87278 2.02686L6.38812 4.56931C6.11846 4.18409 6.0029 3.77961 6.04142 3.35587C6.07994 2.93213 6.25329 2.56617 6.56146 2.25799C6.86964 1.94982 7.24523 1.77647 7.68823 1.73795C8.13123 1.69942 8.52608 1.79573 8.87278 2.02686ZM2.4011 9.01859H16.7312C16.8468 9.01859 16.9528 9.06674 17.0491 9.16304C17.1454 9.25935 17.1935 9.37492 17.1935 9.50974C17.1935 9.64457 17.1454 9.76013 17.0491 9.85644C16.9528 9.95274 16.8468 10.0009 16.7312 10.0009H2.4011C2.28553 10.0009 2.1796 9.95274 2.08329 9.85644C1.98699 9.76013 1.93883 9.64457 1.93883 9.50974C1.93883 9.37492 1.98699 9.25935 2.08329 9.16304C2.1796 9.06674 2.28553 9.01859 2.4011 9.01859ZM16.2112 12.0233C16.2112 12.7167 16.0379 13.3523 15.6912 13.9301C15.3445 14.508 14.8822 14.9702 14.3044 15.3169C13.7265 15.6636 13.0909 15.837 12.3975 15.837H6.73481C6.04142 15.837 5.40581 15.6636 4.82798 15.3169C4.25015 14.9702 3.78789 14.508 3.44119 13.9301C3.09449 13.3523 2.92114 12.7167 2.92114 12.0233V11.041H16.2112V12.0233ZM8.23717 5.84053C8.23717 5.99462 8.28532 6.11981 8.38162 6.21612C8.47793 6.31242 8.5935 6.36058 8.72832 6.36058C8.86315 6.36058 8.97871 6.31242 9.07502 6.21612C9.17132 6.11981 9.21948 5.99462 9.21948 5.84053C9.21948 5.68644 9.17132 5.56125 9.07502 5.46494C8.97871 5.36864 8.86315 5.32048 8.72832 5.32048C8.5935 5.32048 8.47793 5.36864 8.38162 5.46494C8.28532 5.56125 8.23717 5.68644 8.23717 5.84053ZM9.68174 4.39596C9.68174 4.55005 9.72989 4.67524 9.8262 4.77155C9.9225 4.86785 10.0381 4.916 10.1729 4.916C10.3077 4.916 10.4233 4.86785 10.5196 4.77155C10.6159 4.67524 10.664 4.55005 10.664 4.39596C10.664 4.24187 10.6159 4.11667 10.5196 4.02037C10.4233 3.92406 10.3077 3.87591 10.1729 3.87591C10.0381 3.87591 9.9225 3.92406 9.8262 4.02037C9.72989 4.11667 9.68174 4.24187 9.68174 4.39596ZM10.0284 6.18723C10.0284 6.30279 10.0766 6.41836 10.1729 6.53392C10.2692 6.64949 10.3848 6.70727 10.5196 6.70727C10.6544 6.70727 10.77 6.64949 10.8663 6.53392C10.9626 6.41836 11.0107 6.29316 11.0107 6.15834C11.0107 6.02351 10.9626 5.90794 10.8663 5.81164C10.77 5.71533 10.6544 5.66718 10.5196 5.66718C10.3848 5.66718 10.2692 5.71533 10.1729 5.81164C10.0766 5.90794 10.0284 6.03314 10.0284 6.18723Z" fill="#1A1A1A"/>
</g>
<defs>
<clipPath id="clip0_4_98">
<rect width="17.3349" height="17.3349" fill="white" transform="matrix(1 0 0 -1 0.898804 18.0325)"/>
</clipPath>
</defs>
</svg>
