<svg width="11" height="9" viewBox="0 0 11 9" fill="none" xmlns="http://www.w3.org/2000/svg">
<g clip-path="url(#clip0_4_303)">
<path d="M1.02156 3.85134H8.71732L5.77049 1.04454C5.61618 0.897567 5.6102 0.653379 5.75717 0.499075C5.90396 0.344963 6.14814 0.338791 6.30264 0.485766L9.66804 3.69144C9.81364 3.83726 9.89408 4.03091 9.89408 4.23711C9.89408 4.4431 9.81364 4.63695 9.66125 4.78913L6.30245 7.98824C6.2278 8.05943 6.13213 8.09475 6.03647 8.09475C5.93462 8.09475 5.83278 8.05463 5.75698 7.97494C5.61001 7.82064 5.61599 7.57663 5.77029 7.42966L8.72946 4.62287H1.02156C0.808624 4.62287 0.635803 4.45005 0.635803 4.23711C0.635803 4.02416 0.808624 3.85134 1.02156 3.85134Z" fill="white"/>
</g>
<defs>
<clipPath id="clip0_4_303">
<rect width="9.60118" height="8.22958" fill="white" transform="translate(0.464386 0.219971)"/>
</clipPath>
</defs>
</svg>
