<svg width="18" height="19" viewBox="0 0 18 19" fill="none" xmlns="http://www.w3.org/2000/svg">
<path d="M14.2225 16.9925H12.1423C12.0268 16.9925 11.9112 17.0503 11.7956 17.1658C11.6801 17.2814 11.6223 17.4066 11.6223 17.5414C11.6223 17.6763 11.6801 17.7918 11.7956 17.8881C11.9112 17.9844 12.0268 18.0326 12.1423 18.0326H14.2225C14.3766 18.0326 14.5018 17.9844 14.5981 17.8881C14.6944 17.7918 14.7426 17.6763 14.7426 17.5414C14.7426 17.4066 14.6944 17.2814 14.5981 17.1658C14.5018 17.0503 14.3766 16.9925 14.2225 16.9925ZM10.1199 16.9925H8.09752C7.94344 16.9925 7.81824 17.0503 7.72193 17.1658C7.62563 17.2814 7.57748 17.4066 7.57748 17.5414C7.57748 17.6763 7.62563 17.7918 7.72193 17.8881C7.81824 17.9844 7.94344 18.0326 8.09752 18.0326H10.1199C10.274 18.0326 10.3992 17.9844 10.4955 17.8881C10.5918 17.7918 10.64 17.6763 10.64 17.5414C10.64 17.4066 10.5918 17.2814 10.4955 17.1658C10.3992 17.0503 10.274 16.9925 10.1199 16.9925ZM17.285 7.80502C17.1694 7.80502 17.0539 7.85318 16.9383 7.94948C16.8227 8.04579 16.765 8.17098 16.765 8.32507V10.3475C16.765 10.5016 16.8227 10.6268 16.9383 10.7231C17.0539 10.8194 17.1791 10.8675 17.3139 10.8675C17.4487 10.8675 17.5643 10.8194 17.6606 10.7231C17.7569 10.6268 17.805 10.5016 17.805 10.3475V8.32507C17.805 8.17098 17.7569 8.04579 17.6606 7.94948C17.5643 7.85318 17.4391 7.80502 17.285 7.80502ZM17.285 11.8498C17.1694 11.8498 17.0539 11.9076 16.9383 12.0232C16.8227 12.1387 16.765 12.2543 16.765 12.3699V14.3923C16.765 14.5464 16.8227 14.6716 16.9383 14.7679C17.0539 14.8642 17.1791 14.9123 17.3139 14.9123C17.4487 14.9123 17.5643 14.8642 17.6606 14.7679C17.7569 14.6716 17.805 14.5464 17.805 14.3923V12.3699C17.805 12.2543 17.7569 12.1387 17.6606 12.0232C17.5643 11.9076 17.4391 11.8498 17.285 11.8498ZM6.07512 16.9925H5.55508V16.5302C5.55508 16.3762 5.50692 16.251 5.41062 16.1546C5.31432 16.0583 5.18912 16.0102 5.03503 16.0102C4.88094 16.0102 4.75575 16.0583 4.65944 16.1546C4.56314 16.251 4.51499 16.3762 4.51499 16.5302V17.5125C4.51499 17.6666 4.56314 17.7918 4.65944 17.8881C4.75575 17.9844 4.88094 18.0326 5.03503 18.0326H6.07512C6.19069 18.0326 6.29662 17.9844 6.39293 17.8881C6.48923 17.7918 6.53739 17.6763 6.53739 17.5414C6.53739 17.4066 6.48923 17.2814 6.39293 17.1658C6.29662 17.0503 6.19069 16.9925 6.07512 16.9925ZM17.285 4.74253H16.3027C16.1486 4.74253 16.0234 4.79068 15.9271 4.88699C15.8308 4.98329 15.7826 5.10849 15.7826 5.26258C15.7826 5.41667 15.8308 5.54186 15.9271 5.63817C16.0234 5.73447 16.1486 5.78262 16.3027 5.78262H16.765V6.30267C16.765 6.41823 16.8227 6.52417 16.9383 6.62047C17.0539 6.71678 17.1791 6.76493 17.3139 6.76493C17.4487 6.76493 17.5643 6.71678 17.6606 6.62047C17.7569 6.52417 17.805 6.41823 17.805 6.30267V5.26258C17.805 5.10849 17.7569 4.98329 17.6606 4.88699C17.5643 4.79068 17.4391 4.74253 17.285 4.74253ZM17.285 16.0102C17.1694 16.0102 17.0539 16.0583 16.9383 16.1546C16.8227 16.251 16.765 16.3762 16.765 16.5302V16.9925H16.3027C16.1486 16.9925 16.0234 17.0503 15.9271 17.1658C15.8308 17.2814 15.7826 17.4066 15.7826 17.5414C15.7826 17.6763 15.8308 17.7918 15.9271 17.8881C16.0234 17.9844 16.1486 18.0326 16.3027 18.0326H17.285C17.4391 18.0326 17.5643 17.9844 17.6606 17.8881C17.7569 17.7918 17.805 17.6666 17.805 17.5125V16.5302C17.805 16.3762 17.7569 16.251 17.6606 16.1546C17.5643 16.0583 17.4391 16.0102 17.285 16.0102ZM14.2225 4.74253H13.7025V1.21778C13.7025 1.06369 13.6447 0.938492 13.5291 0.842188C13.4135 0.745884 13.298 0.697731 13.1824 0.697731H0.99023C0.836143 0.697731 0.710946 0.745884 0.614642 0.842188C0.518337 0.938492 0.470184 1.06369 0.470184 1.21778V13.41C0.470184 13.5255 0.518337 13.6411 0.614642 13.7567C0.710946 13.8722 0.836143 13.93 0.99023 13.93H4.51499V14.3923C4.51499 14.5464 4.56314 14.6716 4.65944 14.7679C4.75575 14.8642 4.88094 14.9123 5.03503 14.9123C5.18912 14.9123 5.31432 14.8642 5.41062 14.7679C5.50692 14.6716 5.55508 14.5464 5.55508 14.3923V5.78262H14.2225C14.3766 5.78262 14.5018 5.73447 14.5981 5.63817C14.6944 5.54186 14.7426 5.41667 14.7426 5.26258C14.7426 5.10849 14.6944 4.98329 14.5981 4.88699C14.5018 4.79068 14.3766 4.74253 14.2225 4.74253ZM12.6624 4.74253H5.03503C4.88094 4.74253 4.75575 4.79068 4.65944 4.88699C4.56314 4.98329 4.51499 5.10849 4.51499 5.26258V12.8899H1.51028V1.73782H12.6624V4.74253Z" fill="#1A1A1A"/>
</svg>
